<svg xmlns="http://www.w3.org/2000/svg" xmlns:xlink="http://www.w3.org/1999/xlink" width="100%" height="100%" version="1.1" viewBox="0 0 100 100" xml:space="preserve" style="fill-rule:evenodd;clip-rule:evenodd;stroke-linejoin:round;stroke-miterlimit:2"><path d="M100,20C100,8.962 91.038,0 80,0L20,0C8.962,0 0,8.962 0,20L0,80C0,91.038 8.962,100 20,100L80,100C91.038,100 100,91.038 100,80L100,20Z" style="fill:#fff"/><path d="M50.6,85.7C45.467,85.7 40.867,84.867 36.8,83.2C32.733,81.533 29.467,79.067 27,75.8C24.6,72.533 23.333,68.6 23.2,64L41.4,64C41.667,66.6 42.567,68.6 44.1,70C45.633,71.333 47.633,72 50.1,72C52.633,72 54.633,71.433 56.1,70.3C57.567,69.1 58.3,67.467 58.3,65.4C58.3,63.667 57.7,62.233 56.5,61.1C55.367,59.967 53.933,59.033 52.2,58.3C50.533,57.567 48.133,56.733 45,55.8C40.467,54.4 36.767,53 33.9,51.6C31.033,50.2 28.567,48.133 26.5,45.4C24.433,42.667 23.4,39.1 23.4,34.7C23.4,28.167 25.767,23.067 30.5,19.4C35.233,15.667 41.4,13.8 49,13.8C56.733,13.8 62.967,15.667 67.7,19.4C72.433,23.067 74.967,28.2 75.3,34.8L56.8,34.8C56.667,32.533 55.833,30.767 54.3,29.5C52.767,28.167 50.8,27.5 48.4,27.5C46.333,27.5 44.667,28.067 43.4,29.2C42.133,30.267 41.5,31.833 41.5,33.9C41.5,36.167 42.567,37.933 44.7,39.2C46.833,40.467 50.167,41.833 54.7,43.3C59.233,44.833 62.9,46.3 65.7,47.7C68.567,49.1 71.033,51.133 73.1,53.8C75.167,56.467 76.2,59.9 76.2,64.1C76.2,68.1 75.167,71.733 73.1,75C71.1,78.267 68.167,80.867 64.3,82.8C60.433,84.733 55.867,85.7 50.6,85.7Z" style="fill:#fd3d0c;fill-rule:nonzero"/><rect width="65.101" height="84.301" x="18.079" y="4.134" style="fill:#fff"/><g><text x="25.883" y="74.431" style="font-family:'Arial-BoldMT','Arial',sans-serif;font-weight:700;font-size:50.705px;fill:#674fe3" transform="matrix(1.70274,0,0,1.70274,-20.4794,-45.0326)">E</text></g></svg>